<?xml version="1.0" encoding="UTF-8"?>
<svg xmlns="http://www.w3.org/2000/svg" xmlns:xlink="http://www.w3.org/1999/xlink" width="150px" height="150px" viewBox="0 0 150 150" version="1.1">
<g id="surface1">
<path style=" stroke:none;fill-rule:nonzero;fill:rgb(11.372549%,11.372549%,10.588235%);fill-opacity:1;" d="M 125.128906 130.367188 L 24.871094 130.367188 C 11.792969 130.367188 1.152344 119.726562 1.152344 106.644531 L 1.152344 43.351562 C 1.152344 30.273438 11.792969 19.632812 24.871094 19.632812 L 125.128906 19.632812 C 138.207031 19.632812 148.847656 30.273438 148.847656 43.351562 L 148.847656 106.644531 C 148.847656 119.726562 138.207031 130.367188 125.128906 130.367188 Z M 24.871094 26.566406 C 15.617188 26.566406 8.085938 34.097656 8.085938 43.351562 L 8.085938 106.644531 C 8.085938 115.902344 15.617188 123.433594 24.871094 123.433594 L 125.128906 123.433594 C 134.382812 123.433594 141.914062 115.902344 141.914062 106.644531 L 141.914062 43.351562 C 141.914062 34.097656 134.382812 26.566406 125.128906 26.566406 Z M 24.871094 26.566406 "/>
<path style=" stroke:none;fill-rule:nonzero;fill:rgb(11.372549%,11.372549%,10.588235%);fill-opacity:1;" d="M 19.273438 43.683594 C 37.003906 60.960938 54.734375 78.234375 72.464844 95.511719 C 75.769531 98.734375 80.84375 93.671875 77.535156 90.445312 C 59.804688 73.171875 42.074219 55.894531 24.34375 38.617188 C 21.039062 35.394531 15.964844 40.457031 19.273438 43.683594 Z M 19.273438 43.683594 "/>
<path style=" stroke:none;fill-rule:nonzero;fill:rgb(11.372549%,11.372549%,10.588235%);fill-opacity:1;" d="M 77.535156 95.511719 C 95.265625 78.238281 112.996094 60.960938 130.726562 43.683594 C 134.035156 40.460938 128.964844 35.394531 125.65625 38.617188 C 107.925781 55.894531 90.195312 73.171875 72.464844 90.445312 C 69.15625 93.671875 74.226562 98.734375 77.535156 95.511719 Z M 77.535156 95.511719 "/>
<path style=" stroke:none;fill-rule:nonzero;fill:rgb(11.372549%,11.372549%,10.588235%);fill-opacity:1;" d="M 130.53125 107.742188 C 118.730469 96.554688 106.933594 85.367188 95.132812 74.179688 C 91.789062 71.003906 86.710938 76.0625 90.066406 79.246094 C 101.863281 90.433594 113.664062 101.621094 125.460938 112.8125 C 128.808594 115.984375 133.882812 110.921875 130.53125 107.742188 Z M 130.53125 107.742188 "/>
<path style=" stroke:none;fill-rule:nonzero;fill:rgb(11.372549%,11.372549%,10.588235%);fill-opacity:1;" d="M 24.859375 112.808594 C 36.65625 101.621094 48.457031 90.433594 60.253906 79.242188 C 63.605469 76.0625 58.535156 71.003906 55.183594 74.175781 C 43.386719 85.363281 31.589844 96.550781 19.789062 107.742188 C 16.4375 110.921875 21.511719 115.984375 24.859375 112.808594 Z M 24.859375 112.808594 "/>
</g>
</svg>
