<?xml version="1.0" encoding="UTF-8"?>
<svg xmlns="http://www.w3.org/2000/svg" xmlns:xlink="http://www.w3.org/1999/xlink" width="52px" height="52px" viewBox="0 0 52 52" version="1.1">
<g id="surface1">
<path style=" stroke:none;fill-rule:nonzero;fill:rgb(11.372549%,11.372549%,10.588235%);fill-opacity:1;" d="M 43.378906 45.195312 L 8.621094 45.195312 C 4.085938 45.195312 0.398438 41.503906 0.398438 36.96875 L 0.398438 15.027344 C 0.398438 10.496094 4.089844 6.804688 8.621094 6.804688 L 43.378906 6.804688 C 47.914062 6.804688 51.601562 10.496094 51.601562 15.027344 L 51.601562 36.96875 C 51.601562 41.503906 47.914062 45.195312 43.378906 45.195312 Z M 8.621094 9.210938 C 5.414062 9.210938 2.804688 11.820312 2.804688 15.027344 L 2.804688 36.96875 C 2.804688 40.179688 5.414062 42.789062 8.621094 42.789062 L 43.378906 42.789062 C 46.585938 42.789062 49.195312 40.179688 49.195312 36.96875 L 49.195312 15.027344 C 49.195312 11.820312 46.585938 9.210938 43.378906 9.210938 Z M 8.621094 9.210938 "/>
<path style=" stroke:none;fill-rule:nonzero;fill:rgb(11.372549%,11.372549%,10.588235%);fill-opacity:1;" d="M 6.683594 15.144531 C 12.828125 21.132812 18.976562 27.121094 25.121094 33.113281 C 26.265625 34.226562 28.027344 32.472656 26.878906 31.355469 C 20.730469 25.367188 14.585938 19.375 8.4375 13.386719 C 7.292969 12.269531 5.535156 14.027344 6.683594 15.144531 Z M 6.683594 15.144531 "/>
<path style=" stroke:none;fill-rule:nonzero;fill:rgb(11.372549%,11.372549%,10.588235%);fill-opacity:1;" d="M 26.878906 33.113281 C 33.023438 27.121094 39.171875 21.132812 45.316406 15.144531 C 46.464844 14.027344 44.707031 12.269531 43.5625 13.386719 C 37.414062 19.375 31.269531 25.367188 25.121094 31.355469 C 23.976562 32.472656 25.730469 34.226562 26.878906 33.113281 Z M 26.878906 33.113281 "/>
<path style=" stroke:none;fill-rule:nonzero;fill:rgb(11.372549%,11.372549%,10.588235%);fill-opacity:1;" d="M 45.25 37.351562 C 41.160156 33.472656 37.070312 29.59375 32.980469 25.714844 C 31.820312 24.617188 30.058594 26.367188 31.222656 27.472656 C 35.3125 31.351562 39.402344 35.230469 43.492188 39.109375 C 44.652344 40.207031 46.414062 38.453125 45.25 37.351562 Z M 45.25 37.351562 "/>
<path style=" stroke:none;fill-rule:nonzero;fill:rgb(11.372549%,11.372549%,10.588235%);fill-opacity:1;" d="M 8.617188 39.105469 C 12.707031 35.226562 16.796875 31.351562 20.886719 27.472656 C 22.050781 26.367188 20.292969 24.613281 19.132812 25.714844 C 15.042969 29.59375 10.949219 33.472656 6.859375 37.351562 C 5.699219 38.453125 7.457031 40.207031 8.617188 39.105469 Z M 8.617188 39.105469 "/>
</g>
</svg>
