<?xml version="1.0" encoding="UTF-8"?>
<svg xmlns="http://www.w3.org/2000/svg" xmlns:xlink="http://www.w3.org/1999/xlink" width="52px" height="52px" viewBox="0 0 52 52" version="1.1">
<g id="surface1">
<path style=" stroke:none;fill-rule:evenodd;fill:rgb(10.588235%,10.980392%,12.156863%);fill-opacity:1;" d="M 21.578125 20.074219 C 16.71875 22.878906 24.132812 36.78125 29.453125 33.710938 C 30.394531 35.347656 33.4375 40.613281 34.382812 42.25 C 32.136719 43.546875 30.238281 44.363281 27.636719 42.875 C 20.417969 38.746094 12.464844 24.984375 12.691406 16.773438 C 12.769531 13.921875 14.453125 12.804688 16.648438 11.535156 C 17.59375 13.171875 20.636719 18.4375 21.578125 20.074219 Z M 21.578125 20.074219 "/>
<path style=" stroke:none;fill-rule:evenodd;fill:rgb(10.588235%,10.980392%,12.156863%);fill-opacity:1;" d="M 23.617188 19.84375 C 23.09375 20.144531 22.417969 19.964844 22.113281 19.441406 L 17.464844 11.390625 C 17.160156 10.863281 17.34375 10.1875 17.867188 9.886719 L 20.3125 8.476562 C 20.835938 8.171875 21.511719 8.351562 21.816406 8.878906 L 26.460938 16.929688 C 26.765625 17.453125 26.585938 18.128906 26.058594 18.433594 Z M 23.617188 19.84375 "/>
<path style=" stroke:none;fill-rule:evenodd;fill:rgb(10.588235%,10.980392%,12.156863%);fill-opacity:1;" d="M 36.316406 41.835938 C 35.789062 42.140625 35.113281 41.957031 34.8125 41.433594 L 30.164062 33.382812 C 29.859375 32.855469 30.039062 32.179688 30.566406 31.878906 L 33.007812 30.46875 C 33.535156 30.164062 34.210938 30.347656 34.511719 30.871094 L 39.160156 38.921875 C 39.464844 39.445312 39.28125 40.121094 38.757812 40.425781 Z M 36.316406 41.835938 "/>
<path style=" stroke:none;fill-rule:nonzero;fill:rgb(10.588235%,10.980392%,12.156863%);fill-opacity:1;" d="M 26 0 L 26 0.0078125 C 33.183594 0.0078125 39.683594 2.914062 44.382812 7.617188 C 49.085938 12.316406 51.992188 18.816406 51.992188 26 L 52 26 L 51.992188 26 C 51.992188 33.183594 49.085938 39.683594 44.382812 44.382812 C 39.683594 49.085938 33.183594 51.992188 26 51.992188 L 26 52 L 26 51.992188 C 18.816406 51.992188 12.316406 49.085938 7.617188 44.382812 C 2.914062 39.683594 0.0078125 33.183594 0.00390625 26 L 0 26 L 0.00390625 26 C 0.0078125 18.816406 2.914062 12.316406 7.617188 7.617188 C 12.316406 2.914062 18.816406 0.0078125 26 0.0078125 Z M 26 3.101562 L 26 3.105469 L 26 3.101562 C 19.683594 3.101562 13.960938 5.667969 9.8125 9.8125 C 5.667969 13.960938 3.101562 19.683594 3.101562 26 L 3.109375 26 L 3.101562 26 C 3.101562 32.316406 5.667969 38.039062 9.8125 42.1875 C 13.960938 46.332031 19.683594 48.898438 26 48.898438 L 26 48.890625 L 26 48.898438 C 32.316406 48.898438 38.039062 46.332031 42.1875 42.1875 C 46.332031 38.039062 48.898438 32.316406 48.898438 26 L 48.894531 26 L 48.898438 26 C 48.898438 19.683594 46.332031 13.960938 42.1875 9.8125 C 38.039062 5.667969 32.316406 3.101562 26 3.101562 Z M 26 3.101562 "/>
</g>
</svg>
